<svg width="24" height="25" viewBox="0 0 24 25" fill="none" xmlns="http://www.w3.org/2000/svg"><path d="M4.5 7.48145H6.16667H19.5" stroke="black" stroke-width="1.25" stroke-linecap="round" stroke-linejoin="round"></path><path d="M17.8334 7.48153V19.1482C17.8334 19.5902 17.6578 20.0141 17.3453 20.3267C17.0327 20.6393 16.6088 20.8149 16.1667 20.8149H7.83341C7.39139 20.8149 6.96746 20.6393 6.6549 20.3267C6.34234 20.0141 6.16675 19.5902 6.16675 19.1482V7.48153M8.66675 7.48153V5.81486C8.66675 5.37283 8.84234 4.94891 9.1549 4.63635C9.46746 4.32379 9.89139 4.14819 10.3334 4.14819H13.6667C14.1088 4.14819 14.5327 4.32379 14.8453 4.63635C15.1578 4.94891 15.3334 5.37283 15.3334 5.81486V7.48153" stroke="black" stroke-width="1.25" stroke-linecap="round" stroke-linejoin="round"></path><path d="M10.3333 11.6482V16.6482" stroke="black" stroke-width="1.25" stroke-linecap="round" stroke-linejoin="round"></path><path d="M13.6667 11.6482V16.6482" stroke="black" stroke-width="1.25" stroke-linecap="round" stroke-linejoin="round"></path></svg>
