<svg width="19" height="19" viewBox="0 0 19 19" fill="none" xmlns="http://www.w3.org/2000/svg">
<g clip-path="url(#clip0_1289_25269)">
<path d="M9.85938 16.627C14.0015 16.627 17.3594 13.2691 17.3594 9.12695C17.3594 4.98482 14.0015 1.62695 9.85938 1.62695C5.71724 1.62695 2.35938 4.98482 2.35938 9.12695C2.35938 13.2691 5.71724 16.627 9.85938 16.627Z" stroke="#4B5563" stroke-width="1.5" stroke-linecap="round" stroke-linejoin="round"/>
<path d="M7.67676 6.8764C7.85309 6.37515 8.20112 5.95248 8.65922 5.68325C9.11733 5.41402 9.65593 5.31561 10.1796 5.40544C10.7034 5.49527 11.1784 5.76755 11.5206 6.17405C11.8628 6.58055 12.05 7.09505 12.0493 7.6264C12.0493 9.1264 9.79926 9.8764 9.79926 9.8764" stroke="#4B5563" stroke-width="1.5" stroke-linecap="round" stroke-linejoin="round"/>
<path d="M9.85938 12.877H9.86687" stroke="#4B5563" stroke-width="1.5" stroke-linecap="round" stroke-linejoin="round"/>
</g>
<defs>
<clipPath id="clip0_1289_25269">
<rect width="18" height="18" fill="white" transform="translate(0.859375 0.126953)"/>
</clipPath>
</defs>
</svg>
