<svg width="19" height="19" viewBox="0 0 19 19" fill="none" xmlns="http://www.w3.org/2000/svg">
<path d="M9.85937 13.7031C9.03437 13.7031 8.35937 13.0281 8.35937 12.2031C8.35937 11.3781 9.03437 10.7031 9.85937 10.7031C10.6844 10.7031 11.3594 11.3781 11.3594 12.2031C11.3594 13.0281 10.6844 13.7031 9.85937 13.7031ZM14.3594 15.9531V8.45312H5.35937V15.9531H14.3594ZM14.3594 6.95312C15.1844 6.95312 15.8594 7.62814 15.8594 8.45312V15.9531C15.8594 16.7781 15.1844 17.4531 14.3594 17.4531H5.35937C4.53437 17.4531 3.85938 16.7781 3.85938 15.9531V8.45312C3.85938 7.62814 4.53437 6.95312 5.35937 6.95312H6.10937V5.45313C6.10937 3.35314 7.75937 1.70312 9.85937 1.70312C11.9594 1.70312 13.6094 3.35314 13.6094 5.45313V6.95312H14.3594ZM9.85937 3.20312C8.58437 3.20312 7.60937 4.17813 7.60937 5.45313V6.95312H12.1094V5.45313C12.1094 4.17813 11.1344 3.20312 9.85937 3.20312Z" fill="#6B7280"/>
</svg>
