<svg width="19" height="19" viewBox="0 0 19 19" fill="none" xmlns="http://www.w3.org/2000/svg">
<path d="M9.85937 3.57812C10.655 3.57813 11.4181 3.8942 11.9807 4.4568C12.5433 5.01941 12.8594 5.78248 12.8594 6.57812C12.8594 7.37377 12.5433 8.13684 11.9807 8.69945C11.4181 9.26205 10.655 9.57812 9.85937 9.57812C9.06372 9.57812 8.30066 9.26205 7.73805 8.69945C7.17545 8.13684 6.85937 7.37377 6.85937 6.57812C6.85937 5.78248 7.17545 5.01941 7.73805 4.4568C8.30066 3.8942 9.06372 3.57813 9.85937 3.57812ZM9.85937 5.07812C9.46155 5.07812 9.08002 5.23616 8.79871 5.51746C8.51741 5.79877 8.35937 6.1803 8.35937 6.57812C8.35937 6.97595 8.51741 7.35748 8.79871 7.63878C9.08002 7.92009 9.46155 8.07812 9.85937 8.07812C10.2572 8.07812 10.6387 7.92009 10.92 7.63878C11.2013 7.35748 11.3594 6.97595 11.3594 6.57812C11.3594 6.1803 11.2013 5.79877 10.92 5.51746C10.6387 5.23616 10.2572 5.07812 9.85937 5.07812ZM9.85937 10.3281C11.8619 10.3281 15.8594 11.3256 15.8594 13.3281V15.5781H3.85938V13.3281C3.85938 11.3256 7.85687 10.3281 9.85937 10.3281ZM9.85937 11.7531C7.63187 11.7531 5.28437 12.8481 5.28437 13.3281V14.1531H14.4344V13.3281C14.4344 12.8481 12.0869 11.7531 9.85937 11.7531Z" fill="#6B7280"/>
</svg>
