<?xml version="1.0" standalone="no"?>
<!DOCTYPE svg PUBLIC "-//W3C//DTD SVG 20010904//EN"
 "http://www.w3.org/TR/2001/REC-SVG-20010904/DTD/svg10.dtd">
<svg version="1.0" xmlns="http://www.w3.org/2000/svg"
 width="64.000000pt" height="64.000000pt" viewBox="0 0 512.000000 512.000000"
 preserveAspectRatio="xMidYMid meet">

<g transform="translate(0.000000,512.000000) scale(0.100000,-0.100000)"
fill="#000000" stroke="none">
<path d="M386 5029 c-62 -15 -153 -68 -197 -116 -22 -24 -55 -74 -72 -111
l-32 -67 -3 -382 -3 -383 25 -25 25 -25 295 0 296 0 2 -1768 3 -1768 37 -76
c45 -91 103 -147 196 -191 l67 -32 1536 0 1535 0 76 37 c91 45 147 103 191
196 30 63 32 75 35 209 4 141 4 142 -21 167 -25 25 -29 26 -162 26 l-135 0 0
720 0 720 455 0 456 0 24 25 25 24 0 991 0 991 -25 24 -24 25 -454 0 -454 0
-5 143 c-4 106 -11 158 -26 207 -52 159 -176 305 -322 378 -152 76 -45 72
-1765 71 -889 -1 -1556 -5 -1579 -10z m168 -161 c55 -16 138 -99 154 -154 8
-28 12 -134 12 -338 l0 -296 -240 0 -240 0 0 296 c0 204 4 310 12 338 15 51
99 137 148 153 48 15 105 15 154 1z m3001 -3 c178 -47 321 -197 355 -374 5
-30 10 -98 10 -152 l0 -99 -1255 0 -1256 0 -24 -25 -25 -24 0 -991 0 -991 25
-24 24 -25 1256 0 1255 0 0 -720 0 -720 -1255 0 -1256 0 -24 -25 c-24 -23 -25
-31 -25 -136 0 -144 -11 -181 -75 -244 -70 -71 -146 -91 -237 -63 -49 15 -120
76 -144 125 -18 37 -19 111 -24 2199 l-5 2160 -36 72 -35 72 1346 0 c1176 0
1353 -2 1405 -15z m1325 -1665 l0 -880 -1680 0 -1680 0 0 880 0 880 1680 0
1680 0 0 -880z m-640 -2696 c0 -31 -5 -75 -12 -98 -16 -55 -99 -138 -154 -154
-32 -9 -349 -12 -1336 -12 l-1294 0 34 69 c29 59 35 83 40 160 l5 91 1358 0
1359 0 0 -56z"/>
<path d="M2160 3747 c-19 -6 -58 -34 -86 -62 -63 -63 -78 -111 -72 -229 7
-135 23 -154 253 -308 105 -71 198 -137 208 -149 12 -15 17 -39 17 -86 0 -55
-4 -67 -25 -88 -23 -24 -31 -25 -135 -25 -104 0 -112 1 -135 25 -16 15 -25 36
-25 55 0 41 -39 80 -80 80 -42 0 -80 -39 -80 -81 0 -62 23 -113 75 -164 63
-64 100 -75 247 -75 147 0 192 15 251 80 56 62 71 114 65 224 -7 135 -23 154
-253 308 -105 71 -198 137 -207 149 -13 15 -18 39 -18 86 0 55 4 67 25 88 23
24 31 25 135 25 104 0 112 -1 135 -25 16 -15 25 -36 25 -55 0 -41 39 -80 80
-80 42 0 80 39 80 81 0 91 -73 194 -157 223 -55 19 -267 21 -323 3z"/>
<path d="M2825 3735 c-14 -13 -25 -34 -25 -47 0 -13 74 -246 165 -518 173
-519 178 -530 235 -530 57 0 62 11 235 530 91 272 165 505 165 518 0 32 -43
72 -77 72 -60 0 -65 -9 -195 -400 -67 -204 -125 -370 -128 -370 -3 0 -61 166
-128 370 -93 279 -129 374 -145 385 -32 22 -74 19 -102 -10z"/>
<path d="M3925 3751 c-92 -24 -173 -90 -215 -176 -25 -50 -25 -51 -25 -355 l0
-305 28 -61 c131 -282 523 -281 654 1 24 52 28 75 31 177 4 114 4 117 -22 142
-25 26 -27 26 -176 26 -147 0 -152 -1 -175 -25 -16 -15 -25 -36 -25 -55 0 -19
9 -40 25 -55 22 -23 31 -25 121 -25 l97 0 -6 -55 c-7 -68 -36 -118 -90 -153
-34 -23 -52 -27 -107 -27 -55 0 -73 4 -107 27 -22 15 -51 44 -64 65 -24 38
-24 41 -24 320 0 269 1 283 21 309 44 60 67 69 174 69 84 0 103 -3 126 -21 44
-33 64 -66 73 -124 14 -88 82 -120 138 -64 24 24 25 30 19 86 -7 73 -55 167
-105 209 -69 56 -116 72 -231 75 -58 2 -118 0 -135 -5z"/>
</g>
</svg>
